<svg xmlns="http://www.w3.org/2000/svg" xmlns:xlink="http://www.w3.org/1999/xlink" viewBox="0 0 100 125" version="1.1" x="0px" y="0px"><title>Artboard 1 Copy 62</title><desc>Created with Sketch.</desc><g stroke="none" stroke-width="1" fill="none" fill-rule="evenodd"><g fill="#000000"><path d="M50,93 C73.7482442,93 93,73.7482442 93,50 C93,26.2517558 73.7482442,7 50,7 C26.2517558,7 7,26.2517558 7,50 C7,73.7482442 26.2517558,93 50,93 L50,93 Z M50,87 C29.5654643,87 13,70.4345357 13,50 C13,29.5654643 29.5654643,13 50,13 C70.4345357,13 87,29.5654643 87,50 C87,70.4345357 70.4345357,87 50,87 L50,87 Z"/><path d="M39.2010101,47 L53.9983323,32.2026778 C55.171455,31.0295551 55.1715729,29.1299423 54,27.9583694 C52.830811,26.7891805 50.9281856,26.7875432 49.7556917,27.9600371 L29.9600371,47.7556917 C29.3389118,48.376817 29.0466164,49.2016003 29.082956,50.0141527 C29.0545861,50.8176629 29.3466325,51.6309037 29.9600371,52.2443083 L49.7556917,72.0399629 C50.9288143,73.2130856 52.8284271,73.2132034 54,72.0416306 C55.169189,70.8724416 55.1708262,68.9698161 53.9983323,67.7973222 L39.2010101,53 L69.0023401,53 C70.6475599,53 72,51.6568542 72,50 C72,48.3465171 70.657902,47 69.0023401,47 L39.2010101,47 Z"/></g></g></svg>
